<svg width="28" height="32" viewBox="0 0 28 32" fill="none" xmlns="http://www.w3.org/2000/svg">
<g clip-path="url(#clip0_1010_1115)">
<path d="M14.9251 0.997881C15.5833 1.09723 16.2544 1.14425 16.8982 1.30124C22.5938 2.70729 26.1132 6.27552 27.4752 11.9559C27.5698 12.3895 27.6359 12.8288 27.6731 13.2709C27.7187 13.7017 27.7286 14.1355 27.7583 14.6413C27.6267 14.5449 27.4886 14.4575 27.3451 14.3797C26.9403 14.1992 26.5355 14.0157 26.1192 13.8685C25.9404 13.8056 25.8643 13.7404 25.8461 13.5455C25.6667 11.4854 24.9373 9.51073 23.7337 7.82643C22.3788 5.8941 20.4688 4.41566 18.2549 3.58551C16.5477 2.9293 14.7084 2.68704 12.8888 2.87869C10.5865 3.09798 8.40287 3.99952 6.61941 5.46708C4.70477 7.00357 3.32561 9.1032 2.6785 11.4667C2.48522 12.1493 2.41902 12.872 2.28434 13.5743C2.26683 13.666 2.20824 13.7919 2.13215 13.8238C1.56297 14.0688 0.985413 14.294 0.358398 14.5465C0.434492 13.8215 0.458079 13.0563 0.602657 12.3138C1.52872 7.54659 4.22397 4.14596 8.64731 2.12106C10.0059 1.50922 11.4636 1.14549 12.9512 1.04718C13.0406 1.03519 13.1293 1.01797 13.2168 0.995605L14.9251 0.997881Z" fill="#60340B"/>
<path d="M16.6407 28.3556C17.6832 28.3556 18.7173 28.3943 19.7469 28.345C20.8723 28.2912 21.8471 27.4759 22.0913 26.5249C21.6348 26.5037 21.1508 26.5545 20.7057 26.449C19.4516 26.1457 18.6511 25.1264 18.6382 23.8311C18.6161 21.3686 18.6032 18.9061 18.6382 16.4443C18.6709 14.27 20.921 13.0316 22.7891 14.1343C23.6581 14.647 24.0827 15.4592 24.0903 16.4542C24.104 19.5636 24.1208 22.673 24.0842 25.7824C24.0561 28.1774 22.0738 30.1227 19.6708 30.1811C18.7394 30.2038 17.808 30.1917 16.8766 30.1811C16.6978 30.1811 16.6148 30.2387 16.5395 30.3987C15.9863 31.5879 14.7452 32.2075 13.4866 31.9352C12.2729 31.6728 11.3864 30.5952 11.3423 29.3294C11.2997 28.0879 12.1847 26.9503 13.4433 26.6295C14.6326 26.3262 15.9544 26.9443 16.5007 28.0576C16.5494 28.1585 16.5943 28.257 16.6407 28.3556Z" fill="#60340B"/>
<path d="M9.51665 20.1634C9.51665 21.3541 9.52274 22.5447 9.51665 23.7346C9.50904 24.9723 8.78158 26.028 7.7117 26.3776C5.87403 26.9768 4.09115 25.7664 4.05919 23.8393C4.02063 21.3685 4.02063 18.8969 4.05919 16.4245C4.09724 14.2646 6.33364 13.0375 8.19718 14.1273C9.10118 14.6582 9.506 15.5 9.51361 16.5314C9.5235 17.7426 9.51665 18.953 9.51665 20.1634Z" fill="#60340B"/>
<path d="M2.25928 15.7207V24.5605C1.53791 24.3178 0.991553 23.8613 0.693264 23.1711C0.527298 22.7834 0.434685 22.3684 0.420089 21.9471C0.385086 20.7382 0.401065 19.5271 0.409435 18.3174C0.414762 17.0858 1.17114 16.0241 2.25928 15.7207Z" fill="#60340B"/>
<path d="M25.8936 24.5454V15.7056C26.4491 15.8833 26.9287 16.2417 27.2556 16.7233C27.5792 17.1799 27.7499 17.7267 27.7434 18.2856C27.7434 19.5157 27.7533 20.7458 27.7434 21.9759C27.7305 23.1916 26.9733 24.2329 25.8936 24.5454Z" fill="#60340B"/>
</g>
<defs>
<clipPath id="clip0_1010_1115">
<rect width="27.3953" height="31" fill="white" transform="translate(0.365234 0.998047)"/>
</clipPath>
</defs>
</svg>
