<svg width="30" height="32" viewBox="0 0 30 32" fill="none" xmlns="http://www.w3.org/2000/svg">
<g clip-path="url(#clip0_1002_274)">
<path d="M26.0479 25.1764V27.3897C25.9778 27.674 25.93 27.966 25.8353 28.2418C25.2428 29.9613 23.7467 31.0151 21.9063 31.019C17.1114 31.019 12.3165 31.019 7.52166 31.019C7.41073 31.019 7.30056 31.019 7.18963 31.0105C5.37383 30.9188 3.76373 29.5399 3.4756 27.7479C3.35696 27.0045 3.39856 26.2349 3.38316 25.4768C3.37083 24.8605 3.69131 24.5524 4.30377 24.5524C8.00161 24.5524 11.6974 24.5524 15.3911 24.5524C15.6578 24.549 15.9177 24.6368 16.1276 24.8012C16.9037 25.3893 17.682 25.9737 18.4627 26.5546C18.5613 26.6317 18.6614 26.7002 18.7631 26.7742C19.6537 26.1032 20.525 25.4491 21.3948 24.792C21.605 24.6277 21.8653 24.5406 22.132 24.5454C23.0988 24.5524 24.0657 24.5624 25.031 24.5454C25.5279 24.5316 25.8707 24.7034 26.0479 25.1764Z" fill="#F43127"/>
<path d="M29.5143 4.72567C29.2832 5.60622 29.052 6.48523 28.8286 7.36732C27.9982 10.68 27.1713 13.9926 26.348 17.3053C26.3002 17.4994 26.2247 17.5618 26.0221 17.5618C18.4985 17.5562 10.9745 17.5544 3.44985 17.5564C3.38359 17.5564 3.31657 17.5503 3.21873 17.5449C3.06465 16.9447 2.91058 16.3431 2.76189 15.7399C1.86054 12.1386 0.961762 8.53676 0.0655473 4.93444C0.0097831 4.75149 -0.00958399 4.55938 0.00853954 4.36898C0.113312 3.72186 0.859815 3.44452 1.39523 3.85514C2.24266 4.51381 3.08007 5.19329 3.92056 5.86507L7.52056 8.74631C8.0321 9.15538 8.1076 9.40499 7.90036 10.019C7.75651 10.4266 7.76933 10.8731 7.93634 11.2717C8.10335 11.6704 8.41261 11.9927 8.80402 12.1761C9.18611 12.3556 9.62053 12.3897 10.0259 12.272C10.4314 12.1543 10.78 11.8928 11.0066 11.5366C11.2371 11.177 11.3268 10.7448 11.2582 10.3231C11.1897 9.90138 10.9678 9.51983 10.6352 9.25168C10.1291 8.83105 10.059 8.50595 10.351 7.92045C11.5322 5.55178 12.715 3.18233 13.8993 0.812116C14.0796 0.448494 14.3254 0.186563 14.7468 0.185793C15.1682 0.185022 15.4193 0.443102 15.6004 0.807494C16.7816 3.17874 17.9642 5.54793 19.148 7.91506C19.4415 8.50287 19.3706 8.83952 18.8714 9.2486C18.5375 9.51594 18.3145 9.89754 18.2455 10.3197C18.1765 10.7418 18.2664 11.1746 18.4978 11.5343C18.7231 11.8913 19.0708 12.1539 19.4758 12.273C19.8808 12.3922 20.3153 12.3596 20.698 12.1815C21.0856 12.002 21.3936 11.6861 21.5631 11.2941C21.7326 10.902 21.7518 10.4613 21.6171 10.056C21.4006 9.38573 21.463 9.17387 22.0023 8.73783C23.9821 7.15238 25.9623 5.56796 27.9427 3.98456C28.6029 3.45685 29.1283 3.5724 29.5143 4.32353V4.72567Z" fill="#F43127"/>
<path d="M3.45898 19.312H26.0474V19.6063C26.0474 20.3174 26.0474 21.0284 26.0474 21.7395C26.0474 22.4274 25.7077 22.7656 25.019 22.7656H4.52674C3.78332 22.7656 3.46284 22.4405 3.46207 21.6871C3.46207 20.9953 3.46207 20.3038 3.46207 19.6125L3.45898 19.312Z" fill="#F43127"/>
</g>
<defs>
<clipPath id="clip0_1002_274">
<rect width="29.5142" height="30.8316" fill="white" transform="translate(0 0.188965)"/>
</clipPath>
</defs>
</svg>
