<svg width="27" height="28" viewBox="0 0 27 28" fill="none" xmlns="http://www.w3.org/2000/svg">
<path d="M13.5021 9.66872C10.9476 9.66872 8.88709 11.7292 8.88709 14.2837C8.88709 16.8382 10.9476 18.8987 13.5021 18.8987C16.0566 18.8987 18.117 16.8382 18.117 14.2837C18.117 11.7292 16.0566 9.66872 13.5021 9.66872ZM13.5021 17.284C11.8513 17.284 10.5017 15.9385 10.5017 14.2837C10.5017 12.6289 11.8473 11.2834 13.5021 11.2834C15.1569 11.2834 16.5024 12.6289 16.5024 14.2837C16.5024 15.9385 15.1529 17.284 13.5021 17.284ZM19.3822 9.47994C19.3822 10.0784 18.9003 10.5564 18.3058 10.5564C17.7074 10.5564 17.2294 10.0744 17.2294 9.47994C17.2294 8.8855 17.7114 8.40352 18.3058 8.40352C18.9003 8.40352 19.3822 8.8855 19.3822 9.47994ZM22.4388 10.5724C22.3705 9.13051 22.0412 7.85326 20.9848 6.80093C19.9325 5.7486 18.6552 5.41925 17.2133 5.34695C15.7272 5.2626 11.2729 5.2626 9.78679 5.34695C8.34888 5.41523 7.07163 5.74459 6.01528 6.79691C4.95894 7.84924 4.6336 9.12649 4.56131 10.5684C4.47696 12.0545 4.47696 16.5088 4.56131 17.9949C4.62959 19.4369 4.95894 20.7141 6.01528 21.7665C7.07163 22.8188 8.34486 23.1481 9.78679 23.2204C11.2729 23.3048 15.7272 23.3048 17.2133 23.2204C18.6552 23.1521 19.9325 22.8228 20.9848 21.7665C22.0372 20.7141 22.3665 19.4369 22.4388 17.9949C22.5232 16.5088 22.5232 12.0585 22.4388 10.5724ZM20.5189 19.5895C20.2056 20.3767 19.5991 20.9832 18.8079 21.3005C17.623 21.7705 14.8114 21.662 13.5021 21.662C12.1927 21.662 9.37711 21.7665 8.19625 21.3005C7.40901 20.9873 6.80252 20.3808 6.48522 19.5895C6.01528 18.4046 6.12373 15.5931 6.12373 14.2837C6.12373 12.9743 6.0193 10.1587 6.48522 8.97788C6.7985 8.19064 7.405 7.58415 8.19625 7.26684C9.38112 6.79691 12.1927 6.90536 13.5021 6.90536C14.8114 6.90536 17.627 6.80093 18.8079 7.26684C19.5951 7.58013 20.2016 8.18663 20.5189 8.97788C20.9888 10.1627 20.8804 12.9743 20.8804 14.2837C20.8804 15.5931 20.9888 18.4086 20.5189 19.5895Z" fill="#F59A1B"/>
</svg>
